<svg width="182" height="30" viewBox="0 0 182 30" xmlns="http://www.w3.org/2000/svg">
    <title>logo-midtrans-color copy</title>
    <defs>
        <path id="a" d="M0 .904v18.33h3.963V.904H0z"/>
    </defs>
    <g fill="none" fill-rule="evenodd">
        <path d="M1.982 24.115A1.98 1.98 0 0 1 0 22.14V7.762a1.98 1.98 0 0 1 1.982-1.977 1.98 1.98 0 0 1 1.981 1.976V22.14a1.98 1.98 0 0 1-1.981 1.976"
              fill="#89C7E8"/>
        <path d="M25.76 24.115a1.98 1.98 0 0 1-1.98-1.976V7.773a1.98 1.98 0 0 1 1.98-1.976 1.98 1.98 0 0 1 1.982 1.976v14.366a1.98 1.98 0 0 1-1.981 1.976"
              fill="#0BADDC"/>
        <path d="M13.871 29.88a1.98 1.98 0 0 1-1.982-1.975V2.007A1.98 1.98 0 0 1 13.871.031a1.98 1.98 0 0 1 1.982 1.976v25.898a1.98 1.98 0 0 1-1.982 1.976"
              fill="#307FC2"/>
        <path d="M168.783 21.841a1.182 1.182 0 0 1-.476-.952c0-.611.511-1.122 1.158-1.122.238 0 .478.068.648.206 1.805 1.222 3.68 1.868 5.588 1.868 2.113 0 3.647-1.087 3.647-2.787v-.068c0-1.767-2.078-2.447-4.395-3.092-2.762-.783-5.829-1.734-5.829-4.962v-.068c0-3.025 2.522-5.032 5.998-5.032 1.875 0 3.92.58 5.623 1.497.342.205.648.577.648 1.087 0 .613-.512 1.123-1.158 1.123a1.32 1.32 0 0 1-.58-.136c-1.5-.85-3.1-1.36-4.6-1.36-2.08 0-3.409 1.087-3.409 2.55v.067c0 1.665 2.181 2.311 4.532 3.024 2.727.816 5.657 1.87 5.657 5.031v.066c0 3.333-2.759 5.269-6.27 5.269-2.317 0-4.873-.85-6.782-2.209M164.523 13.162c0-3.954-3.477-7.397-7.668-7.397-4.24 0-7.679 3.429-7.679 7.658v9.056c0 .781.606 1.384 1.388 1.384.784 0 1.353-.603 1.353-1.384V13.16a4.926 4.926 0 0 1 4.931-4.918 4.926 4.926 0 0 1 4.934 4.918V22.48c0 .781.604 1.384 1.352 1.384.784 0 1.39-.603 1.39-1.384 0 0 .024-8.466 0-9.317M135.949 21.735c-2.387 0-4.268-1.015-4.268-3.224v-.069c0-2.209 1.84-3.636 5.145-3.636 2.147 0 5.178.686 5.18.747v.004c0 3.221-3.018 6.178-6.057 6.178zm8.544-8.764h-.005C144.25 9.2 140.882 6 136.843 6h-1.176a1.239 1.239 0 1 0 0 2.476h1.17c2.724 0 5.136 2.202 5.136 4.918v.222c-1.568-.441-3.17-.748-5.419-.748-4.464 0-7.532 1.971-7.532 5.676v.068c0 3.604 3.185 5.473 6.457 5.473 2.97 0 5.314-1.52 6.526-3.476v2.014c0 .685.558 1.24 1.245 1.24s1.245-.555 1.245-1.24l-.002-9.652zM128.527 7.234c0-.684-.557-1.239-1.243-1.239h-.848c-4.24 0-7.679 3.429-7.679 7.657v8.827c0 .781.606 1.384 1.388 1.384.785 0 1.354-.603 1.354-1.384l-.002-4.067V13.39a4.926 4.926 0 0 1 4.933-4.918h.854c.686 0 1.243-.554 1.243-1.238M114.402 7.17c0-.638-.52-1.155-1.16-1.155h-4.6V1.402c0-.725-.593-1.391-1.318-1.396-.756-.006-1.306.607-1.306 1.325v17.724c0 3.567 2.146 4.96 4.975 4.96 1.022 0 1.84-.17 2.59-.474.443-.17.75-.544.75-1.02 0-.613-.512-1.121-1.124-1.121-.205 0-.682.237-1.602.237-1.773 0-2.965-.782-2.965-2.922V8.327h4.6c.64 0 1.16-.517 1.16-1.156M100.595 22.555c0 .747-.579 1.325-1.294 1.325-.75 0-1.33-.578-1.33-1.325V20.67c-1.432 2.107-3.51 3.414-6.748 3.414-4.225 0-8.418-3.33-8.418-9.108v-.069c0-5.742 4.193-9.14 8.418-9.14 3.272 0 5.385 1.272 6.748 3.243V1.326C97.97.58 98.516 0 99.267 0c.75 0 1.328.579 1.328 1.326v21.229zM85.5 14.874v.069c0 4.146 2.896 6.797 6.202 6.797 3.271 0 6.372-2.754 6.372-6.797v-.07c0-4.043-3.1-6.762-6.372-6.762-3.41 0-6.202 2.515-6.202 6.763zM75.79 7.079c0-.714.58-1.325 1.295-1.325.75 0 1.33.577 1.33 1.325v15.476c0 .748-.546 1.325-1.296 1.325s-1.328-.576-1.328-1.325V7.079zM63.006 5.754a7.345 7.345 0 0 0-6.053 3.177 7.28 7.28 0 0 0-6.01-3.165c-4.058 0-7.348 3.281-7.348 7.328v9.46c0 .748.578 1.326 1.329 1.326.75 0 1.296-.578 1.296-1.325l-.003-9.711a4.713 4.713 0 0 1 4.722-4.708 4.714 4.714 0 0 1 4.72 4.708v8.631a1.31 1.31 0 0 0 1.312 1.309 1.31 1.31 0 0 0 1.312-1.31l-.004-8.643c0-2.6 2.115-4.707 4.722-4.707a4.714 4.714 0 0 1 4.72 4.707v9.711c0 .75.58 1.325 1.295 1.325.75 0 1.33-.576 1.33-1.325l.007-9.448c0-4.174-3.458-7.34-7.347-7.34"
              fill="#929497"/>
    </g>
</svg>