<svg width="21" height="27" viewBox="0 0 21 27" xmlns="http://www.w3.org/2000/svg">
    <title>ic-perdagangan</title>
    <g fill="none" fill-rule="evenodd">
        <path d="M8.643 26.426H2.095a.943.943 0 0 1-.952-.933V2.333c0-.515.427-.933.952-.933H19.41c.526 0 .952.418.952.934v23.159a.943.943 0 0 1-.952.933h-1.571"
              fill="#FFF"/>
        <path d="M8.643 26.426H2.095a.943.943 0 0 1-.952-.933V2.333c0-.515.427-.933.952-.933H19.41c.526 0 .952.418.952.934v23.159a.943.943 0 0 1-.952.933h-1.571"
              stroke="#2557A7" stroke-linecap="round"/>
        <path d="M16.058 26.426h-4.14" fill="#FFF"/>
        <path d="M16.058 26.426h-4.14" stroke="#2557A7" stroke-linecap="square"/>
        <path d="M17.73 7.804H3.776a.943.943 0 0 1-.953-.933v-2.34c0-.515.426-.933.953-.933H17.73c.525 0 .952.418.952.933v2.34a.943.943 0 0 1-.952.933"
              fill="#FFF"/>
        <path d="M17.73 7.804H3.776a.943.943 0 0 1-.953-.933v-2.34c0-.515.426-.933.953-.933H17.73c.525 0 .952.418.952.933v2.34a.943.943 0 0 1-.952.933z"
              stroke="#2557A7" stroke-linecap="round"/>
        <path d="M17.73 23.794H3.776a.943.943 0 0 1-.953-.933V11.029c0-.516.426-.934.953-.934H17.73c.525 0 .952.418.952.934V22.86a.943.943 0 0 1-.952.933"
              fill="#FFF"/>
        <path d="M17.73 23.794H3.776a.943.943 0 0 1-.953-.933V11.029c0-.516.426-.934.953-.934H17.73c.525 0 .952.418.952.934V22.86a.943.943 0 0 1-.952.933z"
              stroke="#A8D7F4" stroke-linecap="round"/>
        <path d="M7.895 10.095v13.699" fill="#FFF"/>
        <path d="M7.895 10.095v13.699" stroke="#A8D7F4" stroke-linecap="round"/>
        <path d="M13.61 10.095v13.699" fill="#FFF"/>
        <path d="M13.61 10.095v13.699" stroke="#A8D7F4" stroke-linecap="round"/>
        <path d="M2.822 19.476h15.86" fill="#FFF"/>
        <path d="M2.822 19.476h15.86" stroke="#A8D7F4" stroke-linecap="round"/>
        <g>
            <path d="M2.822 14.413h15.86" fill="#FFF"/>
            <path d="M2.822 14.413h15.86" stroke="#A8D7F4" stroke-linecap="round"/>
        </g>
        <path d="M12.256 6.06c.006.07.017.126.032.166.014.04.034.068.06.083a.184.184 0 0 0 .095.022c.041 0 .074-.009.098-.028a.186.186 0 0 0 .06-.097.82.82 0 0 0 .03-.18c.006-.076.01-.17.01-.283v-.19c0-.11-.004-.2-.01-.27a.64.64 0 0 0-.03-.166.153.153 0 0 0-.062-.082.187.187 0 0 0-.096-.023c-.04 0-.072.01-.098.029a.19.19 0 0 0-.059.096.847.847 0 0 0-.03.182c-.006.075-.009.169-.009.28v.191c0 .111.003.2.01.27m-.36-.696a.966.966 0 0 1 .068-.3.48.48 0 0 1 .167-.206.546.546 0 0 1 .311-.078c.11 0 .2.016.272.046.071.03.13.08.171.147a.689.689 0 0 1 .09.263c.019.108.027.24.027.394 0 .122-.004.239-.013.35a.903.903 0 0 1-.068.298.446.446 0 0 1-.167.204.558.558 0 0 1-.312.074.766.766 0 0 1-.268-.042.354.354 0 0 1-.174-.143.704.704 0 0 1-.09-.264 2.428 2.428 0 0 1-.027-.393c0-.122.005-.238.012-.35M13.76 5.294h-.356v-.232h.033a.535.535 0 0 0 .286-.066.312.312 0 0 0 .133-.216h.266v1.749h-.362V5.294zM14.807 6.529a.812.812 0 0 1 .097-.41 1.02 1.02 0 0 1 .123-.18 1.87 1.87 0 0 1 .174-.175l.146-.134a.77.77 0 0 0 .097-.097.431.431 0 0 0 .057-.089.313.313 0 0 0 .026-.096.891.891 0 0 0 .006-.118c0-.145-.06-.218-.175-.218a.18.18 0 0 0-.108.028.175.175 0 0 0-.06.074.355.355 0 0 0-.028.108 1.437 1.437 0 0 0-.006.13h-.349v-.065c0-.164.045-.289.135-.376.088-.087.229-.13.42-.13.181 0 .317.04.402.123.088.082.132.2.132.353a.611.611 0 0 1-.149.427 1.239 1.239 0 0 1-.127.129l-.202.182a.712.712 0 0 0-.126.14.419.419 0 0 0-.059.118h.673v.276h-1.099zM16.663 6.25c.027.055.079.081.159.081a.206.206 0 0 0 .103-.022.155.155 0 0 0 .061-.06.26.26 0 0 0 .028-.09.997.997 0 0 0-.002-.222.244.244 0 0 0-.035-.095.174.174 0 0 0-.07-.066.252.252 0 0 0-.122-.025h-.12V5.52h.118c.039 0 .07-.008.098-.023a.181.181 0 0 0 .062-.063.294.294 0 0 0 .036-.088.455.455 0 0 0 .011-.103c0-.084-.014-.143-.043-.178-.028-.034-.072-.052-.131-.052a.19.19 0 0 0-.094.022.15.15 0 0 0-.058.058.308.308 0 0 0-.026.091 1.34 1.34 0 0 0-.006.114H16.3c0-.176.043-.304.133-.39.089-.084.219-.126.39-.126.163 0 .29.035.38.108.09.072.136.186.136.34a.43.43 0 0 1-.074.26.318.318 0 0 1-.199.126v.005c.116.018.197.064.246.137a.503.503 0 0 1 .071.275c0 .06-.008.12-.022.183a.408.408 0 0 1-.088.171.476.476 0 0 1-.18.123.83.83 0 0 1-.302.047c-.173 0-.303-.046-.389-.138-.084-.093-.127-.223-.127-.393v-.008h.347c.002.102.016.18.041.234"
              fill="#2557A7"/>
    </g>
</svg>