<svg width="22" height="27" viewBox="0 0 22 27" xmlns="http://www.w3.org/2000/svg">
    <title>ic-farmasi</title>
    <g fill="none" fill-rule="evenodd">
        <path d="M8.189 14.082v1.755c0 .153-.053.3-.149.417l-2.35 2.864-4.435 5.403a.656.656 0 0 0 .506 1.073H20.248a.656.656 0 0 0 .507-1.073l-4.435-5.403-2.35-2.864a.656.656 0 0 1-.15-.417V4.42c0-.362.294-.656.657-.656a.656.656 0 0 0 .656-.656v-1.14a.656.656 0 0 0-.656-.656H7.533a.656.656 0 0 0-.657.657v1.139c0 .363.294.656.657.656.362 0 .656.294.656.656v2.143"
              fill="#FFF"/>
        <path d="M8.189 14.082v1.755c0 .153-.053.3-.149.417l-2.35 2.864-4.435 5.403a.656.656 0 0 0 .506 1.073H20.248a.656.656 0 0 0 .507-1.073l-4.435-5.403-2.35-2.864a.656.656 0 0 1-.15-.417V4.42c0-.362.294-.656.657-.656a.656.656 0 0 0 .656-.656v-1.14a.656.656 0 0 0-.656-.656H7.533a.656.656 0 0 0-.657.657v1.139c0 .363.294.656.657.656.362 0 .656.294.656.656v2.143"
              stroke="#2557A7" stroke-linecap="round"/>
        <path d="M8.189 8.367v2.98" fill="#FFF"/>
        <path d="M8.189 8.367v2.98" stroke="#2557A7" stroke-linecap="square"/>
        <g>
            <path fill="#FFF" d="M12.205 4.156V16.79l5.718 6.944H9.502"/>
            <path stroke="#A8D7F4" stroke-linecap="round" d="M12.205 4.156V16.79l5.718 6.944H9.502"/>
        </g>
    </g>
</svg>