<svg width="24" height="22" viewBox="0 0 24 22" xmlns="http://www.w3.org/2000/svg">
    <title>ic-property</title>
    <g fill="none" fill-rule="evenodd">
        <path d="M.414 9.402L11.296 1.57a.828.828 0 0 1 .965-.002l10.972 7.834" fill="#FFF"/>
        <path d="M.414 9.402L11.296 1.57a.828.828 0 0 1 .965-.002l10.972 7.834" stroke="#2557A7"
              stroke-linecap="round"/>
        <path d="M20.88 9.32v10.466c0 .914-.74 1.655-1.655 1.655H4.422c-.915 0-1.655-.74-1.655-1.655V9.32" fill="#FFF"/>
        <path d="M20.88 9.32v10.466c0 .914-.74 1.655-1.655 1.655H4.422c-.915 0-1.655-.74-1.655-1.655V9.32"
              stroke="#2557A7" stroke-linecap="round"/>
        <path d="M18.469 13.048v-1.78c0-.517-.353-.935-.788-.935h-3.742c-.435 0-.788.418-.788.935v9.875" fill="#FFF"/>
        <path d="M18.469 13.048v-1.78c0-.517-.353-.935-.788-.935h-3.742c-.435 0-.788.418-.788.935v9.875"
              stroke="#2557A7" stroke-linecap="round"/>
        <path d="M18.469 21.144V17.73" fill="#FFF"/>
        <path d="M18.469 21.144V17.73" stroke="#2557A7" stroke-linecap="round"/>
        <g>
            <path d="M18.469 16.105V14.73" fill="#FFF"/>
            <path d="M18.469 16.105V14.73" stroke="#2557A7" stroke-linecap="square"/>
        </g>
        <path d="M9.343 14.906h-3.33a.827.827 0 0 1-.828-.828v-2.917c0-.457.37-.828.827-.828h3.331c.457 0 .828.371.828.828v2.917c0 .457-.37.828-.828.828"
              fill="#FFF"/>
        <path d="M9.343 14.906h-3.33a.827.827 0 0 1-.828-.828v-2.917c0-.457.37-.828.827-.828h3.331c.457 0 .828.371.828.828v2.917c0 .457-.37.828-.828.828z"
              stroke="#A8D7F4"/>
    </g>
</svg>