<svg width="20" height="28" viewBox="0 0 20 28" xmlns="http://www.w3.org/2000/svg"
     xmlns:xlink="http://www.w3.org/1999/xlink">
    <title>ic-servis jasa</title>
    <defs>
        <path id="a" d="M0 27.018h19.842V0H0z"/>
    </defs>
    <g transform="translate(0 1)" fill="none" fill-rule="evenodd">
        <path d="M16.033 5.338V4.022c0-.527-.454-.955-1.014-.955h-.486c-.56 0-1.015.428-1.015.955v6.484H13.1V3.183c0-.527-.454-.955-1.014-.955H11.6c-.56 0-1.015.428-1.015.955v7.323h-.419v-9.05C10.165.928 9.711.5 9.151.5h-.486c-.56 0-1.015.428-1.015.956v9.05h-.419V3.183c0-.527-.454-.955-1.014-.955h-.486c-.56 0-1.015.428-1.015.955v9.544l-1.12-1.986c-.263-.465-.877-.642-1.372-.394l-1.186.594c-.494.247-.682.825-.419 1.292l3.978 7.05a.917.917 0 0 1 .12.448v2.986c0 .528.453.956 1.014.956h9.288c.56 0 1.014-.428 1.014-.955V14.239"
              fill="#FFF"/>
        <path d="M16.033 5.338V4.022c0-.527-.454-.955-1.014-.955h-.486c-.56 0-1.015.428-1.015.955v6.484H13.1V3.183c0-.527-.454-.955-1.014-.955H11.6c-.56 0-1.015.428-1.015.955v7.323h-.419v-9.05C10.165.928 9.711.5 9.151.5h-.486c-.56 0-1.015.428-1.015.956v9.05h-.419V3.183c0-.527-.454-.955-1.014-.955h-.486c-.56 0-1.015.428-1.015.955v9.544l-1.12-1.986c-.263-.465-.877-.642-1.372-.394l-1.186.594c-.494.247-.682.825-.419 1.292l3.978 7.05a.917.917 0 0 1 .12.448v2.986c0 .528.453.956 1.014.956h9.288c.56 0 1.014-.428 1.014-.955V14.239"
              stroke="#2557A7" stroke-linecap="round"/>
        <mask id="b" fill="#fff">
            <use xlink:href="#a"/>
        </mask>
        <path fill="#FFF" mask="url(#b)" d="M2.76 22.856h15.312v-2.143H2.76z"/>
        <path stroke="#A8D7F4" stroke-linecap="round" mask="url(#b)" d="M2.76 22.856h15.312v-2.143H2.76z"/>
        <g mask="url(#b)">
            <path fill="#FFF" d="M1.462 26.518v-3.662h17.88v3.662"/>
            <path stroke="#2557A7" stroke-linecap="round" d="M1.462 26.518v-3.662h17.88v3.662"/>
        </g>
        <g mask="url(#b)">
            <path d="M16.033 11.714V7.696" fill="#FFF"/>
            <path d="M16.033 11.714V7.696" stroke="#2557A7" stroke-linecap="round"/>
        </g>
    </g>
</svg>