<svg width="28" height="25" viewBox="0 0 28 25" xmlns="http://www.w3.org/2000/svg">
    <title>ic-telkom</title>
    <g fill="none" fill-rule="evenodd">
        <path d="M13.1 17.124a1.122 1.122 0 0 1 1.932 0l1.502 2.571 1.502 2.57c.43.736-.107 1.654-.965 1.654h-6.009c-.859 0-1.395-.918-.966-1.653l1.502-2.57 1.503-2.572z"
              fill="#FFF"/>
        <path d="M13.1 17.124a1.122 1.122 0 0 1 1.932 0l1.502 2.571 1.502 2.57c.43.736-.107 1.654-.965 1.654h-6.009c-.859 0-1.395-.918-.966-1.653l1.502-2.57 1.503-2.572z"
              stroke="#2557A7" stroke-linecap="round"/>
        <path d="M16.892 17.454c0 1.542-1.266 2.792-2.826 2.792s-2.826-1.25-2.826-2.792c0-1.542 1.266-2.792 2.826-2.792s2.826 1.25 2.826 2.792"
              fill="#FFF"/>
        <path d="M16.892 17.454c0 1.542-1.266 2.792-2.826 2.792s-2.826-1.25-2.826-2.792c0-1.542 1.266-2.792 2.826-2.792s2.826 1.25 2.826 2.792z"
              stroke="#2557A7" stroke-linecap="round"/>
        <path d="M13.552 1.462C7.026 1.57 2.846 5.12 1.055 7.046a.97.97 0 0 0 .147 1.442l.007.006a.993.993 0 0 0 1.315-.115c1.557-1.66 5.293-4.858 11.06-4.951 6.172-.1 10.505 3.451 12.047 4.94.366.354.939.383 1.334.06l.006-.006a.97.97 0 0 0 .072-1.448c-1.534-1.504-5.373-4.683-10.98-5.378-.801-.1-1.64-.147-2.51-.134"
              fill="#FFF"/>
        <path d="M20.55 2.754a18.423 18.423 0 0 0-2.93-.895" stroke="#2557A7"/>
        <path d="M15.225 1.512c-.542-.041-1.1-.059-1.673-.05C7.026 1.569 2.846 5.12 1.055 7.047a.97.97 0 0 0 .147 1.443l.007.004c.406.3.97.254 1.315-.114 1.557-1.661 5.293-4.857 11.06-4.951 6.172-.1 10.505 3.45 12.047 4.941.366.353.939.382 1.334.059l.006-.006a.97.97 0 0 0 .072-1.448 20.145 20.145 0 0 0-5.317-3.706"
              stroke="#2557A7" stroke-linecap="round"/>
        <path d="M24.125 11.287a.97.97 0 0 0 .048-1.494c-1.793-1.566-5.437-4.04-10.498-3.958-4.337.071-7.416 1.98-9.227 3.555a.976.976 0 0 0 .057 1.532l.007.005a.991.991 0 0 0 1.24-.046c1.555-1.346 4.226-3.02 7.956-3.08 4.365-.071 7.588 2.128 9.145 3.474.359.31.89.313 1.263.02l.01-.008z"
              fill="#FFF"/>
        <path d="M24.125 11.287a.97.97 0 0 0 .048-1.494c-1.793-1.566-5.437-4.04-10.498-3.958-4.337.071-7.416 1.98-9.227 3.555a.976.976 0 0 0 .057 1.532l.007.005a.991.991 0 0 0 1.24-.046c1.555-1.346 4.226-3.02 7.956-3.08 4.365-.071 7.588 2.128 9.145 3.474.359.31.89.313 1.263.02l.01-.008z"
              stroke="#2557A7"/>
        <path d="M20.473 14.168a.976.976 0 0 0-.007-1.543c-1.324-1.037-3.608-2.352-6.639-2.302a9.594 9.594 0 0 0-5.501 1.821.977.977 0 0 0-.008 1.586c.352.26.827.256 1.183.002a7.634 7.634 0 0 1 4.36-1.444c2.444-.04 4.32 1.063 5.385 1.897a.992.992 0 0 0 1.222-.013l.005-.005z"
              fill="#FFF"/>
        <path d="M20.473 14.168a.976.976 0 0 0-.007-1.543c-1.324-1.037-3.608-2.352-6.639-2.302a9.594 9.594 0 0 0-5.501 1.821.977.977 0 0 0-.008 1.586c.352.26.827.256 1.183.002a7.634 7.634 0 0 1 4.36-1.444c2.444-.04 4.32 1.063 5.385 1.897a.992.992 0 0 0 1.222-.013l.005-.005z"
              stroke="#A8D7F4"/>
    </g>
</svg>