<svg width="25" height="28" viewBox="0 0 25 28" xmlns="http://www.w3.org/2000/svg">
    <title>ic-asuransi</title>
    <g fill="none" fill-rule="evenodd">
        <path d="M23.872 7.378l.296-2.158a.918.918 0 0 0-.488-.941C22.14 3.47 17.684 1.4 12.495 1.4 7.305 1.4 2.85 3.471 1.31 4.28a.918.918 0 0 0-.489.941l2.049 14.911a.93.93 0 0 0 .387.632l8.673 6.127a.983.983 0 0 0 1.128 0l8.674-6.127a.93.93 0 0 0 .387-.632l.767-5.585"
              fill="#FFF"/>
        <path d="M23.872 7.378l.296-2.158a.918.918 0 0 0-.488-.941C22.14 3.47 17.684 1.4 12.495 1.4 7.305 1.4 2.85 3.471 1.31 4.28a.918.918 0 0 0-.489.941l2.049 14.911a.93.93 0 0 0 .387.632l8.673 6.127a.983.983 0 0 0 1.128 0l8.674-6.127a.93.93 0 0 0 .387-.632l.767-5.585"
              stroke="#2557A7" stroke-linecap="round"/>
        <path d="M12.495 4.613c-3.89 0-7.23 1.553-8.385 2.158a.69.69 0 0 0-.365.707L5.28 18.655c.027.19.131.36.29.473l6.502 4.593a.737.737 0 0 0 .846 0l6.501-4.593a.701.701 0 0 0 .291-.473l1.535-11.177a.69.69 0 0 0-.365-.707c-1.155-.605-4.495-2.158-8.385-2.158"
              fill="#FFF"/>
        <path d="M12.495 4.613c-3.89 0-7.23 1.553-8.385 2.158a.69.69 0 0 0-.365.707L5.28 18.655c.027.19.131.36.29.473l6.502 4.593a.737.737 0 0 0 .846 0l6.501-4.593a.701.701 0 0 0 .291-.473l1.535-11.177a.69.69 0 0 0-.365-.707c-1.155-.605-4.495-2.158-8.385-2.158z"
              stroke="#A8D7F4" stroke-linecap="round"/>
        <path d="M12.495 9.747v5.716" fill="#FFF"/>
        <path d="M12.495 9.747v5.716" stroke="#2557A7" stroke-width="2" stroke-linecap="round"/>
        <g>
            <path d="M9.555 12.605h5.88" fill="#FFF"/>
            <path d="M9.555 12.605h5.88" stroke="#2557A7" stroke-width="2" stroke-linecap="round"/>
        </g>
        <g>
            <path d="M23.268 11.775l.357-2.598" fill="#FFF"/>
            <path d="M23.268 11.775l.357-2.598" stroke="#2557A7" stroke-linecap="square"/>
        </g>
    </g>
</svg>