<svg width="27" height="27" viewBox="0 0 27 27" xmlns="http://www.w3.org/2000/svg">
    <title>ic-oto</title>
    <g fill="none" fill-rule="evenodd">
        <path d="M.5 13.363C.5 6.26 6.259.5 13.363.5c7.104 0 12.864 5.76 12.864 12.863 0 7.104-5.76 12.863-12.864 12.863C6.259 26.226.5 20.467.5 13.363"
              fill="#FFF"/>
        <path d="M.5 13.363C.5 6.26 6.259.5 13.363.5c7.104 0 12.864 5.76 12.864 12.863 0 7.104-5.76 12.863-12.864 12.863C6.259 26.226.5 20.467.5 13.363z"
              stroke="#2557A7"/>
        <path d="M7.145 13.363a6.218 6.218 0 1 1 12.436 0 6.218 6.218 0 0 1-12.436 0" fill="#FFF"/>
        <path d="M7.145 13.363a6.218 6.218 0 1 1 12.436 0 6.218 6.218 0 0 1-12.436 0z" stroke="#A8D7F4"/>
        <path d="M19.316 7.41a8.444 8.444 0 0 1 1.69 2.419" fill="#FFF"/>
        <path d="M19.316 7.41a8.444 8.444 0 0 1 1.69 2.419M21.781 13.363a8.418 8.418 0 1 1-3.87-7.086"
              stroke="#2557A7"/>
        <path d="M14.03 6.529l1.171 3.603a.855.855 0 0 0 .814.592h3.788c.83 0 1.174 1.061.503 1.548l-3.065 2.227a.857.857 0 0 0-.31.957l1.17 3.603c.256.789-.646 1.444-1.317.957l-3.065-2.227a.855.855 0 0 0-1.006 0l-3.065 2.227c-.67.487-1.574-.168-1.317-.957l1.17-3.603a.855.855 0 0 0-.31-.957l-3.066-2.227c-.67-.487-.326-1.548.504-1.548h3.788c.371 0 .7-.239.814-.592l1.171-3.603c.256-.789 1.372-.789 1.628 0"
              fill="#FFF"/>
        <path d="M14.03 6.529l1.171 3.603a.855.855 0 0 0 .814.592h3.788c.83 0 1.174 1.061.503 1.548l-3.065 2.227a.857.857 0 0 0-.31.957l1.17 3.603c.256.789-.646 1.444-1.317.957l-3.065-2.227a.855.855 0 0 0-1.006 0l-3.065 2.227c-.67.487-1.574-.168-1.317-.957l1.17-3.603a.855.855 0 0 0-.31-.957l-3.066-2.227c-.67-.487-.326-1.548.504-1.548h3.788c.371 0 .7-.239.814-.592l1.171-3.603c.256-.789 1.372-.789 1.628 0z"
              stroke="#2557A7"/>
        <g>
            <path d="M12.845 16.029a2.48 2.48 0 0 1 .691-4.858 2.477 2.477 0 0 1 1.115 4.692" fill="#FFF"/>
            <path d="M12.845 16.029a2.48 2.48 0 0 1 .691-4.858 2.477 2.477 0 0 1 1.115 4.692" stroke="#A8D7F4"
                  stroke-linecap="round"/>
        </g>
    </g>
</svg>