<svg id="Layer_1" data-name="Layer 1" xmlns="http://www.w3.org/2000/svg" viewBox="0 0 32 32">
    <defs>
        <style>
            .cls-1,.cls-17,.cls-2{fill:none}.cls-2{clip-rule:evenodd}.cls-3{clip-path:url(#clip-path)}.cls-4{clip-path:url(#clip-path-2)}.cls-5{clip-path:url(#clip-path-3)}.cls-6{clip-path:url(#clip-path-5)}.cls-7{clip-path:url(#clip-path-6)}.cls-8{clip-path:url(#clip-path-7)}.cls-9{clip-path:url(#clip-path-8)}.cls-10{clip-path:url(#clip-path-9)}.cls-11{clip-path:url(#clip-path-10)}.cls-12{clip-path:url(#clip-path-11)}.cls-13{clip-path:url(#clip-path-12)}.cls-14{clip-path:url(#clip-path-13)}.cls-15,.cls-16{fill:#fff}.cls-15,.cls-17{stroke:#2657a7}.cls-15,.cls-16,.cls-17{stroke-linecap:round;stroke-miterlimit:10}.cls-16{stroke:#a8d6f3}
        </style>
        <clipPath id="clip-path">
            <rect class="cls-1" x="-471.47" y="-463.59" width="91.92" height="91.92" rx="1.7" ry="1.7"/>
        </clipPath>
        <clipPath id="clip-path-2">
            <path class="cls-2"
                  d="M-164-461.88v88.52a1.92 1.92 0 0 0 1.92 1.92h88.52a1.92 1.92 0 0 0 1.92-1.92v-88.52a1.92 1.92 0 0 0-1.92-1.92h-88.52a1.92 1.92 0 0 0-1.92 1.92zm.43 0a1.49 1.49 0 0 1 1.49-1.49h88.52a1.49 1.49 0 0 1 1.49 1.49v88.52a1.49 1.49 0 0 1-1.49 1.49h-88.52a1.49 1.49 0 0 1-1.49-1.49v-88.52zm-8.94-10.43h109.38v109.37H-172.5v-109.37z"/>
        </clipPath>
        <clipPath id="clip-path-3">
            <rect class="cls-1" x="-163.78" y="-463.59" width="91.92" height="91.92" rx="1.7" ry="1.7"/>
        </clipPath>
        <clipPath id="clip-path-5">
            <rect class="cls-1" x="-61.64" y="-463.59" width="91.92" height="91.92" rx="1.7" ry="1.7"/>
        </clipPath>
        <clipPath id="clip-path-6">
            <rect class="cls-1" x="-471.47" y="-297.61" width="91.92" height="91.92" rx="1.7" ry="1.7"/>
        </clipPath>
        <clipPath id="clip-path-7">
            <rect class="cls-1" x="-471.47" y="-158.02" width="91.92" height="91.92" rx="1.7" ry="1.7"/>
        </clipPath>
        <clipPath id="clip-path-8">
            <rect class="cls-1" x="-266.34" y="-297.61" width="91.92" height="91.92" rx="1.7" ry="1.7"/>
        </clipPath>
        <clipPath id="clip-path-9">
            <rect class="cls-1" x="-368.9" y="-463.59" width="91.92" height="91.92" rx="1.7" ry="1.7"/>
        </clipPath>
        <clipPath id="clip-path-10">
            <rect class="cls-1" x="-368.9" y="-297.61" width="91.92" height="91.92" rx="1.7" ry="1.7"/>
        </clipPath>
        <clipPath id="clip-path-11">
            <rect class="cls-1" x="-163.78" y="-297.61" width="91.92" height="91.92" rx="1.7" ry="1.7"/>
        </clipPath>
        <clipPath id="clip-path-12">
            <rect class="cls-1" x="-60.79" y="-297.61" width="91.92" height="91.92" rx="1.7" ry="1.7"/>
        </clipPath>
        <clipPath id="clip-path-13">
            <rect class="cls-1" x="-266.34" y="-463.59" width="91.92" height="91.92" rx="1.7" ry="1.7"/>
        </clipPath>
    </defs>
    <title>ic-healthcare</title>
    <circle class="cls-15" cx="22.5" cy="10.22" r="5.8"/>
    <path class="cls-15"
          d="M18.08 29.26H13a5.54 5.54 0 0 1-5.53-5.53v-3.25a1.11 1.11 0 1 1 2.21 0v3.25A3.32 3.32 0 0 0 13 27h5.1a3.32 3.32 0 0 0 3.32-3.32V12.87a1.11 1.11 0 0 1 2.21 0v10.86a5.54 5.54 0 0 1-5.55 5.53z"/>
    <circle class="cls-16" cx="22.5" cy="10.22" r="2.77"/>
    <path class="cls-17" d="M11.16 3.83h2.34v13.25a2.33 2.33 0 0 1-2.33 2.33H6a2.33 2.33 0 0 1-2.3-2.33V3.83h2.48"/>
    <circle class="cls-15" cx="6.21" cy="3.83" r="1.09"/>
    <circle class="cls-15" cx="10.87" cy="3.83" r="1.09"/>
    <path class="cls-17" d="M3.7 14.4s4.68 6.54 9.79 0"/>
</svg>