<svg id="Layer_1" data-name="Layer 1" xmlns="http://www.w3.org/2000/svg" viewBox="0 0 32 32">
    <defs>
        <style>
            .cls-1,.cls-2{fill:none}.cls-2{clip-rule:evenodd}.cls-3{clip-path:url(#clip-path)}.cls-4{clip-path:url(#clip-path-2)}.cls-5{clip-path:url(#clip-path-3)}.cls-6{clip-path:url(#clip-path-5)}.cls-7{clip-path:url(#clip-path-6)}.cls-8{clip-path:url(#clip-path-7)}.cls-9{clip-path:url(#clip-path-8)}.cls-10{clip-path:url(#clip-path-9)}.cls-11{clip-path:url(#clip-path-10)}.cls-12{clip-path:url(#clip-path-11)}.cls-13{clip-path:url(#clip-path-12)}.cls-14{clip-path:url(#clip-path-13)}.cls-15,.cls-16{fill:#fff;stroke-linecap:round;stroke-miterlimit:10}.cls-15{stroke:#2657a7}.cls-16{stroke:#a8d6f3}.cls-17{fill:#2657a7}
        </style>
        <clipPath id="clip-path">
            <rect class="cls-1" x="-471.47" y="-463.59" width="91.92" height="91.92" rx="1.7" ry="1.7"/>
        </clipPath>
        <clipPath id="clip-path-2">
            <path class="cls-2"
                  d="M-164-461.88v88.52a1.92 1.92 0 0 0 1.92 1.92h88.52a1.92 1.92 0 0 0 1.92-1.92v-88.52a1.92 1.92 0 0 0-1.92-1.92h-88.52a1.92 1.92 0 0 0-1.92 1.92zm.43 0a1.49 1.49 0 0 1 1.49-1.49h88.52a1.49 1.49 0 0 1 1.49 1.49v88.52a1.49 1.49 0 0 1-1.49 1.49h-88.52a1.49 1.49 0 0 1-1.49-1.49v-88.52zm-8.94-10.43h109.38v109.37H-172.5v-109.37z"/>
        </clipPath>
        <clipPath id="clip-path-3">
            <rect class="cls-1" x="-163.78" y="-463.59" width="91.92" height="91.92" rx="1.7" ry="1.7"/>
        </clipPath>
        <clipPath id="clip-path-5">
            <rect class="cls-1" x="-61.64" y="-463.59" width="91.92" height="91.92" rx="1.7" ry="1.7"/>
        </clipPath>
        <clipPath id="clip-path-6">
            <rect class="cls-1" x="-471.47" y="-297.61" width="91.92" height="91.92" rx="1.7" ry="1.7"/>
        </clipPath>
        <clipPath id="clip-path-7">
            <rect class="cls-1" x="-471.47" y="-158.02" width="91.92" height="91.92" rx="1.7" ry="1.7"/>
        </clipPath>
        <clipPath id="clip-path-8">
            <rect class="cls-1" x="-266.34" y="-297.61" width="91.92" height="91.92" rx="1.7" ry="1.7"/>
        </clipPath>
        <clipPath id="clip-path-9">
            <rect class="cls-1" x="-368.9" y="-463.59" width="91.92" height="91.92" rx="1.7" ry="1.7"/>
        </clipPath>
        <clipPath id="clip-path-10">
            <rect class="cls-1" x="-368.9" y="-297.61" width="91.92" height="91.92" rx="1.7" ry="1.7"/>
        </clipPath>
        <clipPath id="clip-path-11">
            <rect class="cls-1" x="-163.78" y="-297.61" width="91.92" height="91.92" rx="1.7" ry="1.7"/>
        </clipPath>
        <clipPath id="clip-path-12">
            <rect class="cls-1" x="-60.79" y="-297.61" width="91.92" height="91.92" rx="1.7" ry="1.7"/>
        </clipPath>
        <clipPath id="clip-path-13">
            <rect class="cls-1" x="-266.34" y="-463.59" width="91.92" height="91.92" rx="1.7" ry="1.7"/>
        </clipPath>
    </defs>
    <title>ic-media</title>
    <rect class="cls-15" x="10.73" y="8.12" width="17.3" height="18.9" rx="1" ry="1"/>
    <path class="cls-15"
          d="M26.11 27H5a1 1 0 0 1-1-1V6a1 1 0 0 1 1-1h18.69a1 1 0 0 1 1 1v18.51S24.78 27 26.11 27zM6.03 11.88h16.83M6.03 21.36h7.31M6.03 23.99h7.31M15.06 21.36h7.39M15.06 23.99h7.39"/>
    <rect class="cls-16" x="6.16" y="14.1" width="16.33" height="5.43" rx="1" ry="1"/>
    <path class="cls-17"
          d="M8.52 10.48V7.32h.84L10 8.48a9.16 9.16 0 0 1 .52 1.08 11.71 11.71 0 0 1-.06-1.32v-.92h.66v3.16h-.73l-.68-1.22a11.64 11.64 0 0 1-.55-1.12v2.38h-.64zM13.64 9.14h-1.17v.75h1.3v.59h-2V7.32h1.95v.58h-1.25v.66h1.16v.58zM14.8 10.48l-.74-3.16h.76l.24 1.3c.07.37.14.78.19 1.1.05-.34.13-.72.21-1.11l.27-1.29h.76l.25 1.33c.07.37.12.71.17 1.06.09-.35.09-.71.19-1.1l.26-1.29h.73l-.81 3.16h-.78l-.27-1.36c-.06-.32-.11-.61-.15-1-.08.38-.08.68-.19 1l-.3 1.36h-.79zM18.44 9.74a1.82 1.82 0 0 0 .79.2c.33 0 .5-.14.5-.34s-.15-.31-.53-.44a1 1 0 0 1-.87-.93 1 1 0 0 1 1.19-1 1.94 1.94 0 0 1 .81.16l-.15.61a1.51 1.51 0 0 0-.66-.15.37.37 0 0 0-.46.3c0 .2.18.29.58.44a1 1 0 0 1 .82.94 1.07 1.07 0 0 1-1.27 1 2.07 2.07 0 0 1-.89-.19z"/>
</svg>