<svg width="26" height="26" viewBox="0 0 26 26" xmlns="http://www.w3.org/2000/svg">
    <title>ic-finance</title>
    <g fill="none" fill-rule="evenodd">
        <path d="M25.043 12.86c0 .82-.084 1.619-.243 2.391-1.115 5.404-5.938 9.47-11.719 9.47-6.606 0-11.961-5.31-11.961-11.86S6.475 1 13.08 1c4.754 0 8.859 2.749 10.789 6.73a11.735 11.735 0 0 1 1.173 5.13"
              fill="#FEFEFE"/>
        <path d="M25.043 12.86c0 .82-.084 1.619-.243 2.391-1.115 5.404-5.938 9.47-11.719 9.47-6.606 0-11.961-5.31-11.961-11.86S6.475 1 13.08 1c4.754 0 8.859 2.749 10.789 6.73a11.735 11.735 0 0 1 1.173 5.13z"
              stroke="#1F62AC"/>
        <path d="M22.312 14.743c-.878 4.257-4.677 7.46-9.23 7.46-5.204 0-9.423-4.183-9.423-9.342 0-5.16 4.219-9.343 9.423-9.343a9.43 9.43 0 0 1 8.497 5.302"
              fill="#FEFEFE"/>
        <path d="M22.312 14.743c-.878 4.257-4.677 7.46-9.23 7.46-5.204 0-9.423-4.183-9.423-9.342 0-5.16 4.219-9.343 9.423-9.343a9.43 9.43 0 0 1 8.497 5.302"
              stroke="#A7D6F3"/>
        <path d="M21.948 10.254c.193.644.315 1.305.365 1.969" fill="#FEFEFE"/>
        <path d="M21.948 10.254c.193.644.315 1.305.365 1.969" stroke="#A7D6F3"/>
        <path d="M12.35 11.306c0-.484-.375-.778-.872-.778H10.18v1.556h1.3c.496 0 .87-.294.87-.778zm-.123 3.907l-1.142-2.049h-.906v2.049H8.941V9.447h2.72c1.212 0 1.953.787 1.953 1.859 0 1.02-.645 1.564-1.273 1.711l1.308 2.196h-1.422zM17.643 13.121c0-.718-.427-1.21-1.064-1.21-.358 0-.767.208-.95.475v1.478c.183.26.592.476.95.476.637 0 1.064-.493 1.064-1.219m-2.014 1.556v2.127H14.52v-5.766h1.108v.527c.322-.406.784-.63 1.299-.63 1.08 0 1.865.794 1.865 2.186s-.784 2.196-1.865 2.196c-.497 0-.96-.208-1.3-.64"
              fill="#2557A7"/>
    </g>
</svg>