<svg width="29" height="24" viewBox="0 0 29 24" xmlns="http://www.w3.org/2000/svg">
    <title>ic-IT</title>
    <g fill="none" fill-rule="evenodd">
        <path d="M24.322 15.38H4.529a.961.961 0 0 1-.966-.957V2.435a.96.96 0 0 1 .966-.956h19.793a.96.96 0 0 1 .965.956v11.988a.961.961 0 0 1-.965.957"
              fill="#FFF"/>
        <path d="M24.322 15.38H4.529a.961.961 0 0 1-.966-.957V2.435a.96.96 0 0 1 .966-.956h19.793a.96.96 0 0 1 .965.956v11.988a.961.961 0 0 1-.965.957z"
              stroke="#2557A7" stroke-linecap="round"/>
        <path d="M22.525 13.395h-16.2a.96.96 0 0 1-.965-.956V4.325a.96.96 0 0 1 .966-.957h16.2a.96.96 0 0 1 .965.957v8.114a.961.961 0 0 1-.966.956"
              fill="#FFF"/>
        <path d="M22.525 13.395h-16.2a.96.96 0 0 1-.965-.956V4.325a.96.96 0 0 1 .966-.957h16.2a.96.96 0 0 1 .965.957v8.114a.961.961 0 0 1-.966.956z"
              stroke="#A8D7F4" stroke-linecap="round"/>
        <path d="M26.724 21.087H2.612a.957.957 0 0 1-.888-1.332l1.588-3.683a.967.967 0 0 1 .889-.58h20.511c.355 0 .68.192.849.5l2.012 3.683a.956.956 0 0 1-.849 1.412"
              fill="#FFF"/>
        <path d="M26.724 21.087H2.612a.957.957 0 0 1-.888-1.332l1.588-3.683a.967.967 0 0 1 .889-.58h20.511c.355 0 .68.192.849.5l2.012 3.683a.956.956 0 0 1-.849 1.412z"
              stroke="#2557A7" stroke-linecap="round"/>
        <path d="M27.38 22.76H2.114a.961.961 0 0 1-.966-.956v-.717c0-.528.433-.957.966-.957h25.264c.533 0 .966.429.966.957v.717a.961.961 0 0 1-.966.957"
              fill="#FFF"/>
        <path d="M27.38 22.76H2.114a.961.961 0 0 1-.966-.956v-.717c0-.528.433-.957.966-.957h25.264c.533 0 .966.429.966.957v.717a.961.961 0 0 1-.966.957z"
              stroke="#2557A7" stroke-linecap="round"/>
        <path d="M4.85 17.181h11.667" fill="#FFF"/>
        <path d="M4.85 17.181h11.667" stroke="#2557A7" stroke-linecap="round"/>
        <g>
            <path d="M19.655 17.181h4.586" fill="#FFF"/>
            <path d="M19.655 17.181h4.586" stroke="#2557A7" stroke-linecap="round"/>
        </g>
    </g>
</svg>