<svg width="20" height="28" viewBox="0 0 20 28" xmlns="http://www.w3.org/2000/svg">
    <title>ic-retail</title>
    <g fill="none" fill-rule="evenodd">
        <path d="M11.808 1.5C9.3 3.458 9.433 6.445 9.433 6.445M11.276 10.467s4.573-1.662 6.49-4.022c.807-.992 1.045-2.142.83-3.142"
              stroke="#2557A7" stroke-linecap="round"/>
        <path d="M14.96 15.794l1.347-3.222c.103-.246.123-.52.057-.78L14.812 5.69a1.233 1.233 0 0 0-1.715-.814l-6.26 2.909c-.28.13-.5.359-.619.643L.593 21.882a1.204 1.204 0 0 0 .647 1.575l7.842 3.278a1.204 1.204 0 0 0 1.575-.646l1.841-4.406"
              fill="#FFF"/>
        <path d="M14.96 15.794l1.347-3.222c.103-.246.123-.52.057-.78L14.812 5.69a1.233 1.233 0 0 0-1.715-.814l-6.26 2.909c-.28.13-.5.359-.619.643L.593 21.882a1.204 1.204 0 0 0 .647 1.575l7.842 3.278a1.204 1.204 0 0 0 1.575-.646l1.841-4.406"
              stroke="#2557A7" stroke-linecap="round"/>
        <path d="M5.97 17.454l-.38.908.76.317a.865.865 0 0 0 .361.087c.161-.008.28-.107.36-.297.085-.204.077-.368-.022-.493-.055-.07-.156-.135-.3-.196l-.78-.326zm1.666.11a.902.902 0 0 1 .218.369c.035.115.052.233.051.355a1.1 1.1 0 0 1-.405.804.742.742 0 0 1-.539.16c.13.128.202.264.22.406.016.143-.025.332-.123.569l-.095.227a1.769 1.769 0 0 0-.113.32.298.298 0 0 0 .05.248l-.036.085-.779-.326a1.88 1.88 0 0 1 .122-.503l.126-.316c.087-.217.11-.376.07-.478-.043-.101-.162-.194-.358-.275l-.689-.29-.554 1.326-.689-.288 1.412-3.378 1.615.676c.23.1.394.204.496.31zM9.767 20.253c-.026-.185-.14-.32-.338-.403a.531.531 0 0 0-.634.131c-.096.1-.182.241-.26.425-.121.29-.128.527-.021.71a.586.586 0 0 0 .285.24.52.52 0 0 0 .509-.035c.155-.1.28-.267.379-.5.08-.194.108-.383.08-.568m.698-.26c.114.3.084.66-.091 1.076-.184.44-.424.734-.72.881-.294.148-.6.156-.912.024a.869.869 0 0 1-.436-.356 1.036 1.036 0 0 1-.112-.33L7.65 22.59l-.646-.27 1.454-3.48.626.26-.154.37c.116-.079.227-.133.333-.163a.908.908 0 0 1 .59.051c.294.123.499.334.612.635"
              fill="#2557A7"/>
        <path d="M12.846 11.123a1.702 1.702 0 1 1-3.14-1.312 1.702 1.702 0 0 1 3.14 1.312" fill="#FFF"/>
        <path d="M12.846 11.123a1.702 1.702 0 1 1-3.14-1.312 1.702 1.702 0 0 1 3.14 1.312z" stroke="#A8D7F4"/>
        <path d="M12.352 10.413c-.996.102-1.96-.496-1.96-.496" stroke="#2557A7" stroke-linecap="round"/>
        <g>
            <path d="M13.838 18.11l-.655 1.688" fill="#FFF"/>
            <path d="M13.838 18.11l-.655 1.688" stroke="#2557A7" stroke-linecap="round"/>
        </g>
    </g>
</svg>