<svg width="25" height="25" viewBox="0 0 25 25" xmlns="http://www.w3.org/2000/svg">
    <title>ic-manufactur</title>
    <g fill="none" fill-rule="evenodd">
        <path d="M15.586 16.482c-5.013 3.648-10.581-1.92-6.933-6.933.063-.086.143-.167.229-.229 5.013-3.649 10.582 1.92 6.933 6.933a1.077 1.077 0 0 1-.229.23m8.087-1.912v-3.34a.914.914 0 0 0-.914-.914h-1.042a.932.932 0 0 1-.867-.628 9.437 9.437 0 0 0-.253-.614.93.93 0 0 1 .17-1.053l.737-.736a.913.913 0 0 0 0-1.293l-2.362-2.362a.913.913 0 0 0-1.292 0l-.737.737a.932.932 0 0 1-1.052.17 8.948 8.948 0 0 0-.615-.252.932.932 0 0 1-.628-.868V2.376a.914.914 0 0 0-.914-.914h-3.34a.914.914 0 0 0-.914.914v1.042a.933.933 0 0 1-.627.868c-.21.076-.414.161-.616.253a.93.93 0 0 1-1.05-.171l-.738-.737a.913.913 0 0 0-1.293 0L2.964 5.993a.913.913 0 0 0 0 1.293l.737.736a.93.93 0 0 1 .17 1.053 9.437 9.437 0 0 0-.252.614.931.931 0 0 1-.867.628H1.709a.914.914 0 0 0-.914.914v3.34c0 .505.409.914.914.914h1.043c.394 0 .73.258.867.627.077.209.161.415.252.616.163.357.108.774-.17 1.051l-.737.738a.913.913 0 0 0 0 1.292l2.362 2.362a.915.915 0 0 0 1.293 0l.737-.736c.277-.278.694-.334 1.051-.171.202.091.407.175.616.253a.93.93 0 0 1 .627.866v1.044c0 .504.409.913.914.913h3.34a.914.914 0 0 0 .914-.913v-1.044a.93.93 0 0 1 .628-.866c.209-.078.413-.162.615-.253a.93.93 0 0 1 1.052.17l.737.737a.915.915 0 0 0 1.292 0l2.362-2.362a.913.913 0 0 0 0-1.292l-.737-.738c-.277-.277-.333-.694-.17-1.051.091-.201.175-.406.253-.616a.933.933 0 0 1 .867-.627h1.042a.914.914 0 0 0 .914-.914"
              fill="#FFF"/>
        <path d="M15.586 16.482c-5.013 3.648-10.581-1.92-6.933-6.933.063-.086.143-.167.229-.229 5.013-3.649 10.582 1.92 6.933 6.933a1.077 1.077 0 0 1-.229.23zm8.087-1.91V11.23a.914.914 0 0 0-.914-.914h-1.042a.932.932 0 0 1-.867-.628 9.437 9.437 0 0 0-.253-.614.93.93 0 0 1 .17-1.053l.737-.736a.913.913 0 0 0 0-1.293l-2.362-2.362a.913.913 0 0 0-1.292 0l-.737.737a.932.932 0 0 1-1.052.17 8.948 8.948 0 0 0-.615-.252.932.932 0 0 1-.628-.868V2.376a.914.914 0 0 0-.914-.914h-3.34a.914.914 0 0 0-.914.914v1.042a.933.933 0 0 1-.627.868c-.21.076-.414.161-.616.253a.93.93 0 0 1-1.05-.171l-.738-.737a.913.913 0 0 0-1.293 0L2.964 5.993a.913.913 0 0 0 0 1.293l.737.736a.93.93 0 0 1 .17 1.053 9.437 9.437 0 0 0-.252.614.931.931 0 0 1-.867.628H1.709a.914.914 0 0 0-.914.914v3.34c0 .505.409.914.914.914h1.043c.394 0 .73.258.867.627.077.209.161.415.252.616.163.357.108.774-.17 1.051l-.737.738a.913.913 0 0 0 0 1.292l2.362 2.362a.915.915 0 0 0 1.293 0l.737-.736c.277-.278.694-.334 1.051-.171.202.091.407.175.616.253a.93.93 0 0 1 .627.866v1.044c0 .504.409.913.914.913h3.34a.914.914 0 0 0 .914-.913v-1.044a.93.93 0 0 1 .628-.866c.209-.078.413-.162.615-.253a.93.93 0 0 1 1.052.17l.737.737a.915.915 0 0 0 1.292 0l2.362-2.362a.913.913 0 0 0 0-1.292l-.737-.738c-.277-.277-.333-.694-.17-1.051.091-.201.175-.406.253-.616a.933.933 0 0 1 .867-.627h1.042a.914.914 0 0 0 .914-.914z"
              stroke="#2557A7" stroke-linecap="round"/>
        <path d="M6.04 10.493A6.65 6.65 0 0 1 8.352 7.51" stroke="#A8D7F4" stroke-linecap="square"/>
        <path d="M10.111 6.604a6.643 6.643 0 1 1-4.52 6.297" stroke="#A8D7F4" stroke-linecap="round"/>
    </g>
</svg>