<svg width="28" height="29" viewBox="0 0 28 29" xmlns="http://www.w3.org/2000/svg">
    <title>ic-food</title>
    <g fill="none" fill-rule="evenodd">
        <path d="M27.146 13.656c0 7.266-5.89 13.156-13.156 13.156-7.266 0-13.156-5.89-13.156-13.156C.834 6.39 6.724.5 13.99.5c7.266 0 13.156 5.89 13.156 13.156"
              fill="#FFF"/>
        <path d="M27.146 13.656c0 7.266-5.89 13.156-13.156 13.156-7.266 0-13.156-5.89-13.156-13.156C.834 6.39 6.724.5 13.99.5c7.266 0 13.156 5.89 13.156 13.156z"
              stroke="#2557A7" stroke-linecap="round"/>
        <path d="M22.91 9.926a9.58 9.58 0 0 1 .745 3.73c0 5.338-4.328 9.666-9.666 9.666s-9.666-4.328-9.666-9.666S8.651 3.99 13.99 3.99a9.72 9.72 0 0 1 2.423.306"
              fill="#FFF"/>
        <path d="M22.91 9.926a9.58 9.58 0 0 1 .745 3.73c0 5.338-4.328 9.666-9.666 9.666s-9.666-4.328-9.666-9.666S8.651 3.99 13.99 3.99a9.72 9.72 0 0 1 2.423.306"
              stroke="#A8D7F4" stroke-linecap="round"/>
        <path d="M18.948 5.358A9.713 9.713 0 0 1 22.102 8.4" fill="#FFF"/>
        <path d="M18.948 5.358A9.713 9.713 0 0 1 22.102 8.4" stroke="#A8D7F4" stroke-linecap="round"/>
        <path d="M20.486 12.381c0-2.342-1.31-4.24-2.924-4.24-1.615 0-2.924 1.898-2.924 4.24 0 1.623.636 3.017 1.56 3.73v10.652c0 .446.362.808.808.808h1.11a.809.809 0 0 0 .81-.808V16.11c.924-.712 1.56-2.106 1.56-3.729"
              fill="#FFF"/>
        <path d="M20.486 12.381c0-2.342-1.31-4.24-2.924-4.24-1.615 0-2.924 1.898-2.924 4.24 0 1.623.636 3.017 1.56 3.73v10.652c0 .446.362.808.808.808h1.11a.809.809 0 0 0 .81-.808V16.11c.924-.712 1.56-2.106 1.56-3.729z"
              stroke="#2557A7" stroke-linecap="round"/>
        <path d="M13.342 12.381c0-2.342-1.31-4.24-2.924-4.24-1.615 0-2.924 1.898-2.924 4.24 0 1.623.636 3.017 1.56 3.73v10.652c0 .446.362.808.808.808h1.11a.809.809 0 0 0 .81-.808V16.11c.924-.712 1.56-2.106 1.56-3.729"
              fill="#FFF"/>
        <path d="M13.342 12.381c0-2.342-1.31-4.24-2.924-4.24-1.615 0-2.924 1.898-2.924 4.24 0 1.623.636 3.017 1.56 3.73v10.652c0 .446.362.808.808.808h1.11a.809.809 0 0 0 .81-.808V16.11c.924-.712 1.56-2.106 1.56-3.729z"
              stroke="#2557A7" stroke-linecap="round"/>
        <g>
            <path d="M9.421 8.399v3.717" fill="#FFF"/>
            <path d="M9.421 8.399v3.717" stroke="#2557A7" stroke-linecap="round"/>
        </g>
        <g>
            <path d="M11.33 8.399v3.717" fill="#FFF"/>
            <path d="M11.33 8.399v3.717" stroke="#2557A7" stroke-linecap="round"/>
        </g>
    </g>
</svg>