<svg width="29" height="26" viewBox="0 0 29 26" xmlns="http://www.w3.org/2000/svg">
    <title>ic-produk konsumen</title>
    <g fill="none" fill-rule="evenodd">
        <path d="M24.442 24.723H5.324c-.474 0-.873-.328-.93-.761l-1.729-13.2c-.068-.514.368-.969.93-.969h22.576c.562 0 .998.455.931.969l-1.73 13.2c-.057.433-.456.76-.93.76"
              fill="#FFF"/>
        <path d="M24.442 24.723H5.324c-.474 0-.873-.328-.93-.761l-1.729-13.2c-.068-.514.368-.969.93-.969h22.576c.562 0 .998.455.931.969l-1.73 13.2c-.057.433-.456.76-.93.76z"
              stroke="#2557A7" stroke-linecap="round"/>
        <path d="M3.336 16.228H26.43M3.947 20.55h21.837M14.866 12.298v12.425M10.92 12.298v12.425M6.976 12.298v12.425M23.017 12.298v12.425M19.072 12.298v12.425"
              stroke="#A8D7F4" stroke-linecap="round"/>
        <path d="M24.442 24.723H5.324c-.474 0-.873-.328-.93-.761l-1.729-13.2c-.068-.514.368-.969.93-.969h22.576c.562 0 .998.455.931.969l-1.73 13.2c-.057.433-.456.76-.93.76z"
              stroke="#2557A7" stroke-linecap="round"/>
        <path d="M10.615 9.134h16.757c.494 0 .895.429.895.958v.799c0 .529-.401.958-.895.958H2.394c-.494 0-.894-.43-.894-.958v-.8c0-.528.4-.957.894-.957h1.08"
              fill="#FFF"/>
        <path d="M10.615 9.134h16.757c.494 0 .895.429.895.958v.799c0 .529-.401.958-.895.958H2.394c-.494 0-.894-.43-.894-.958v-.8c0-.528.4-.957.894-.957h1.08"
              stroke="#2557A7" stroke-linecap="round"/>
        <path d="M5.1 9.134h3.27" fill="#FFF"/>
        <path d="M5.1 9.134h3.27" stroke="#2557A7" stroke-linecap="round"/>
        <path d="M13.034 13.334a.937.937 0 0 1-.937-.937V1.437a.937.937 0 1 1 1.874 0v10.96a.937.937 0 0 1-.937.937"
              fill="#FFF"/>
        <path d="M13.034 13.334a.937.937 0 0 1-.937-.937V1.437a.937.937 0 1 1 1.874 0v10.96a.937.937 0 0 1-.937.937z"
              stroke="#2557A7" stroke-linecap="round"/>
        <path d="M16.732 13.334a.937.937 0 0 1-.937-.937V1.437a.937.937 0 1 1 1.874 0v10.96a.937.937 0 0 1-.937.937"
              fill="#FFF"/>
        <path d="M16.732 13.334a.937.937 0 0 1-.937-.937V1.437a.937.937 0 1 1 1.874 0v10.96a.937.937 0 0 1-.937.937z"
              stroke="#2557A7" stroke-linecap="round"/>
    </g>
</svg>