<svg width="26" height="26" viewBox="0 0 26 26" xmlns="http://www.w3.org/2000/svg">
    <title>ic-konstruksi</title>
    <g transform="translate(-3.333 -2)" fill="none" fill-rule="evenodd">
        <rect width="32" height="32" rx="4"/>
        <path d="M25.693 18.957c0 4.018-4.239 7.276-9.469 7.276-5.229 0-9.468-3.258-9.468-7.276h18.937z"
              stroke="#2557A7" stroke-linecap="round"/>
        <path d="M21.126 6.335a9.715 9.715 0 0 0-4.901-1.333c-5.84 0-10.575 5.248-10.575 11.722h21.149c0-2.009-.456-3.9-1.259-5.553a12.443 12.443 0 0 0-.474-.88"
              fill="#FFF"/>
        <path d="M21.126 6.335a9.715 9.715 0 0 0-4.901-1.333c-5.84 0-10.575 5.248-10.575 11.722h21.149c0-2.009-.456-3.9-1.259-5.553a12.443 12.443 0 0 0-.474-.88"
              stroke="#2557A7" stroke-linecap="round"/>
        <path d="M18.241 15.805h-4.185a.961.961 0 0 1-.961-.961V4.442c0-.53.43-.962.961-.962h4.185c.53 0 .962.431.962.962v10.402c0 .53-.431.961-.962.961"
              fill="#FFF"/>
        <path d="M18.241 15.805h-4.185a.961.961 0 0 1-.961-.961V4.442c0-.53.43-.962.961-.962h4.185c.53 0 .962.431.962.962v10.402c0 .53-.431.961-.962.961z"
              stroke="#A8D7F4" stroke-linecap="round"/>
        <path d="M27.407 19.335H5.442a.962.962 0 0 1-.962-.961v-.849c0-.531.431-.961.962-.961h21.965c.531 0 .962.43.962.961v.849c0 .53-.43.961-.962.961"
              fill="#FFF"/>
        <path d="M27.407 19.335H5.442a.962.962 0 0 1-.962-.961v-.849c0-.531.431-.961.962-.961h21.965c.531 0 .962.43.962.961v.849c0 .53-.43.961-.962.961z"
              stroke="#2557A7" stroke-linecap="round"/>
        <path d="M18.867 27.281h-4.811a.962.962 0 0 1-.962-.961v-.571c0-.531.431-.962.962-.962h4.811c.531 0 .962.431.962.962v.57c0 .532-.43.962-.962.962"
              fill="#FFF"/>
        <path d="M18.867 27.281h-4.811a.962.962 0 0 1-.962-.961v-.571c0-.531.431-.962.962-.962h4.811c.531 0 .962.431.962.962v.57c0 .532-.43.962-.962.962z"
              stroke="#2557A7" stroke-linecap="round"/>
        <g>
            <path d="M24.136 8.946a11.123 11.123 0 0 0-1.674-1.689" fill="#FFF"/>
            <path d="M24.136 8.946a11.123 11.123 0 0 0-1.674-1.689" stroke="#2557A7" stroke-linecap="round"/>
        </g>
    </g>
</svg>