<svg width="28" height="27" viewBox="0 0 28 27" xmlns="http://www.w3.org/2000/svg"
     xmlns:xlink="http://www.w3.org/1999/xlink">
    <title>ic-pendidikan</title>
    <defs>
        <path id="a" d="M27.563 18.346V.808H0v26.155h27.563V.808H0v17.538h27.563z"/>
        <path id="b" d="M.447 4.148h2.058V.235H.447z"/>
    </defs>
    <g fill="none" fill-rule="evenodd">
        <path d="M3.176 12.773v2.878c0 .52.318.989.805 1.185l10.353 5.611a1.3 1.3 0 0 0 1.276-.176l9.267-7.669c.315-.242.498-.615.498-1.009v-3.197"
              fill="#FFF"/>
        <path d="M3.176 12.773v2.878c0 .52.318.989.805 1.185l10.353 5.611a1.3 1.3 0 0 0 1.276-.176l9.267-7.669c.315-.242.498-.615.498-1.009v-3.197"
              stroke="#2557A7" stroke-linecap="round"/>
        <path d="M15.139 17.053L.85 9.584 13.757.624a.319.319 0 0 1 .339-.033l12.853 6.664-11.775 9.793-.02.008a.034.034 0 0 1-.015-.003"
              fill="#FFF"/>
        <path d="M13.952.038a.834.834 0 0 0-.494.162L.215 9.395a.273.273 0 0 0 .036.463l14.644 7.655a.555.555 0 0 0 .615-.067L27.567 7.419a.273.273 0 0 0-.049-.453L14.343.136a.83.83 0 0 0-.391-.098m.017 1.073l12.045 6.246-10.924 9.085L1.854 9.524 13.969 1.11"
              fill="#2557A7"/>
        <path stroke="#2557A7" stroke-linecap="round" d="M7.692 21.128v-7.38l4.922-4.423"/>
        <g transform="translate(6.378 22.044)">
            <mask id="c" fill="#fff">
                <use xlink:href="#b"/>
            </mask>
            <path d="M2.505 4.092l-1.03-.641-1.028.698V1.256c0-.551.44-1.003.996-1.02a1.025 1.025 0 0 1 1.062 1.02v2.836z"
                  fill="#2557A7" mask="url(#c)"/>
        </g>
        <path d="M16.307 7.709c0 .539-.757 1.009-1.691 1.05-.932.04-1.687-.365-1.687-.903s.755-1.008 1.687-1.05c.934-.041 1.69.363 1.69.903"
              fill="#FFF"/>
        <path d="M16.307 7.709c0 .539-.757 1.009-1.691 1.05-.932.04-1.687-.365-1.687-.903s.755-1.008 1.687-1.05c.934-.041 1.69.363 1.69.903z"
              stroke="#A8D7F4"/>
        <path d="M14.895 18.628v2.323" fill="#FFF"/>
        <path d="M14.895 18.628v2.323" stroke="#A8D7F4" stroke-linecap="round"/>
        <path fill="#FFF" d="M3.683 13.23v-1.579l1.867.976zM23.69 10.642l1.16-.95v1.279z"/>
    </g>
</svg>